<?xml version="1.0" encoding="utf-8"?>
<!-- Generator: Adobe Illustrator 26.3.1, SVG Export Plug-In . SVG Version: 6.00 Build 0)  -->
<svg version="1.1" id="Calque_1" xmlns="http://www.w3.org/2000/svg" xmlns:xlink="http://www.w3.org/1999/xlink" x="0px" y="0px"
	 viewBox="0 0 1162.2 606.61" style="enable-background:new 0 0 1162.2 606.61;" xml:space="preserve">
<style type="text/css">
	.st0{fill:url(#SVGID_1_);}
	.st1{fill:url(#SVGID_00000162316707893141277000000001400770091584419209_);}
	.st2{fill:#575756;}
</style>
<g>
	<linearGradient id="SVGID_1_" gradientUnits="userSpaceOnUse" x1="23.2188" y1="402.9998" x2="620.3911" y2="-15.1447">
		<stop  offset="0" style="stop-color:#A21007"/>
		<stop  offset="0.0452" style="stop-color:#A60F09"/>
		<stop  offset="0.3537" style="stop-color:#C20C16"/>
		<stop  offset="0.5993" style="stop-color:#D3091D"/>
		<stop  offset="0.75" style="stop-color:#D9081F"/>
	</linearGradient>
	<path class="st0" d="M641.52,15.03c-86.1,188.7-288.04,382.29-450.73,431.7C27.73,496.24-33.42,382.27,54.1,192.65l56.49-17.12
		c-57.27,124.18-17.22,198.79,89.62,166.4C306.8,309.64,439.14,182.86,495.86,59.04L641.52,15.03z"/>
	
		<linearGradient id="SVGID_00000088109721287851992460000005126804249282285211_" gradientUnits="userSpaceOnUse" x1="125.8459" y1="238.047" x2="325.583" y2="98.1896">
		<stop  offset="0" style="stop-color:#A21007"/>
		<stop  offset="0.0452" style="stop-color:#A60F09"/>
		<stop  offset="0.3537" style="stop-color:#C20C16"/>
		<stop  offset="0.5993" style="stop-color:#D3091D"/>
		<stop  offset="0.75" style="stop-color:#D9081F"/>
	</linearGradient>
	<path style="fill:url(#SVGID_00000088109721287851992460000005126804249282285211_);" d="M136.12,167.78
		c-29.18,63.32-8.81,101.33,45.61,84.86c54.44-16.45,122-81.09,150.97-144.27L136.12,167.78z"/>
</g>
<path class="st2" d="M582.33,457.32c-5.33,0-11.23-0.94-14.36-1.84v34.73h-25.2v-114.2c7.43-3.29,21.48-6.11,36.44-6.11
	c32.17,0,49.66,16.35,49.66,43.75C628.87,439.78,612.81,457.32,582.33,457.32z M579.55,386.55c-4.58,0-9.38,0.73-11.58,1.71v51.14
	c1.97,0.85,7.35,1.58,11.79,1.58c15.66,0,23.83-11.26,23.83-27.33C603.59,396.54,595.04,386.55,579.55,386.55z M686.54,458.3
	c-28.92,0-45.03-18.99-45.03-44.31c0-25.28,16.11-44.08,45.03-44.08c28.98,0,45.06,18.8,45.06,44.08
	C731.6,439.31,715.52,458.3,686.54,458.3z M686.54,386.68c-13.28,0-19.87,10.21-19.87,27.19c0,16.92,6.59,26.97,19.87,26.97
	c13.41,0,19.98-10.06,19.98-26.97C706.52,396.9,699.95,386.68,686.54,386.68z M773.35,458.3c-12.51,0-24.82-2.81-32.26-6.14
	l8.16-16.3c4.91,2.63,16.1,5.48,23.27,5.48c9.15,0,14.96-3.61,14.96-9.28c0-6.25-6.43-8.95-15.35-11.65
	c-12.6-3.88-28.41-8.93-28.41-25.57c0-14.92,13.31-24.93,36.51-24.93c12.82,0,23.14,2.62,30.71,6.11l-7.76,14.62
	c-4.17-2.26-13.15-4.89-19.79-4.89c-8.81,0-14.08,3.77-14.08,8.78c0,6.47,6.53,8.99,15.2,11.66c13.1,4.06,29.2,8.78,29.2,25.87
	C813.72,447.94,799.83,458.3,773.35,458.3z M864.37,457.65c-19.28,0-28.36-8.95-28.36-26.7v-43.19h-12.79v-16h12.79v-18.86
	l24.76-6.07v24.93h18.69v16h-18.69v41.8c0,6.9,5.04,9.27,11.5,9.27c2.63,0,5.45-0.66,7.18-1.28v17.79
	C876.47,456.55,870.39,457.65,864.37,457.65z M526.67,413.65c0,27.45-17.52,43.83-49.7,43.83c-15.01,0-29.03-2.82-36.4-6.17V337.2
	h25.11v34.7c3.13-0.95,9.07-1.88,14.33-1.88C510.55,370.02,526.67,387.61,526.67,413.65z M501.32,413.65
	c0-16.03-8.12-27.3-23.83-27.3c-4.46,0-9.74,0.77-11.81,1.55v51.18c2.21,0.98,7.04,1.76,11.59,1.76
	C492.87,440.84,501.32,430.79,501.32,413.65z"/>
<g>
	<path class="st2" d="M1100.24,566.45c0,5.07-1.73,7.2-5.73,7.2c-3.87,0-5.73-2.13-5.73-7.2v-19.75h-9.86l0.06,20.41
		c0,9.47,3.8,13.95,11.66,13.95c3.53,0,7.47-1.4,9.6-4.14v3.8h9.86v-34.02h-9.86V566.45z"/>
	<path class="st2" d="M831.86,546.37c-3.4,0-8.06,1.07-10.93,4.87v-15.63H810.6v45.12h10.33v-4.54c2.87,3.81,7.53,4.87,10.93,4.87
		c8.4,0,14.99-5.87,14.99-17.34C846.86,552.91,840.26,546.37,831.86,546.37 M828.73,572.92c-5,0-7.8-3.87-7.8-9.2
		c0-5.4,2.8-9.21,7.8-9.21c5,0,7.8,3.81,7.8,9.21C836.52,569.06,833.72,572.92,828.73,572.92"/>
	<path class="st2" d="M871.15,546.37c-3.4,0-8.06,1.07-10.93,4.87v-4.54h-10.33v45.1h10.33v-15.61c2.87,3.8,7.53,4.87,10.93,4.87
		c8.4,0,14.99-6.54,14.99-17.34C886.14,552.24,879.54,546.37,871.15,546.37 M868.01,572.92c-5,0-7.8-3.8-7.8-9.2
		c0-5.34,2.8-9.21,7.8-9.21c5,0,7.8,3.87,7.8,9.21C875.81,569.12,873.01,572.92,868.01,572.92"/>
	<path class="st2" d="M461.83,546.37c-3.4,0-8.06,1.07-10.93,4.87v-4.54h-10.33v45.1h10.33v-15.61c2.87,3.8,7.53,4.87,10.93,4.87
		c8.4,0,14.99-6.54,14.99-17.34C476.82,552.24,470.23,546.37,461.83,546.37 M458.7,572.92c-5,0-7.8-3.8-7.8-9.2
		c0-5.34,2.8-9.21,7.8-9.21c5,0,7.8,3.87,7.8,9.21C466.5,569.12,463.7,572.92,458.7,572.92"/>
	<path class="st2" d="M906.17,546.37c-9.46,0-17.8,6.27-17.8,17.41c0,11.14,8.34,17.28,17.8,17.28c9.46,0,17.79-6.14,17.79-17.28
		C923.96,552.64,915.63,546.37,906.17,546.37 M906.17,572.92c-5,0-7.47-3.8-7.47-9.14c0-5.4,2.47-9.27,7.47-9.27
		c5,0,7.46,3.87,7.46,9.27C913.63,569.12,911.16,572.92,906.17,572.92"/>
	<path class="st2" d="M497.48,546.37c-9.46,0-17.8,6.27-17.8,17.41c0,11.14,8.34,17.28,17.8,17.28c9.46,0,17.79-6.14,17.79-17.28
		C515.27,552.64,506.94,546.37,497.48,546.37 M497.48,572.92c-5,0-7.47-3.8-7.47-9.14c0-5.4,2.47-9.27,7.47-9.27
		c5,0,7.46,3.87,7.46,9.27C504.95,569.12,502.48,572.92,497.48,572.92"/>
	<path class="st2" d="M938.81,554.51c2.67,0,5.07,1.41,6.79,3.21l5.8-5.81c-3.27-3.87-8.8-5.53-13.46-5.53
		c-4.73,0-12.39,2.2-12.39,9.34c0,4.07,2.6,6.67,8.39,9.54c4.47,2.2,6.87,3.4,6.87,5.53c0,1.4-1.06,2.14-3.13,2.14
		c-2.2,0-5.47-1.34-8.19-4.14l-6,6c3.6,4.07,9.93,6.27,15.06,6.27c7.06,0,12.59-3.4,12.59-9.68c0-4.8-3.53-7.6-8.86-10.01
		c-5.33-2.47-6.4-3.27-6.4-4.87C935.87,555.11,937.61,554.51,938.81,554.51"/>
	<path class="st2" d="M1002.04,551.24c-2.87-3.8-7.53-4.87-10.93-4.87c-8.4,0-14.99,5.87-14.99,17.34c0,2.27,0.35,4.3,0.89,6.17
		c-0.52,0.79-1.8,2.35-3.87,3.07c-0.33,0.1-0.65,0.2-0.95,0.25c-0.22,0.04-0.46,0.06-0.69,0.08c-2.95,0.25-4.44-1.88-4.44-6.17
		v-12.28h6.46v-8.14h-6.46v-8.67l-10.33,2.91v5.77h-3.66v8.14h3.66v13.01c0,4.87,0.92,8.17,2.61,10.26v0
		c0.01,0.02,2.76,3.94,9.26,3.94c3.13,0,6.99-0.94,11.47-4.63c0.2-0.16,0.4-0.3,0.57-0.47c0.06-0.05,0.12-0.09,0.18-0.14h-0.04
		c0.02-0.02,0.03-0.03,0.05-0.05c2.67,2.76,6.26,4.3,10.29,4.3c3.4,0,8.06-1.07,10.93-4.87c0,7.34-4.4,9.08-8.8,9.08
		c-3.53,0-7.13-0.94-12-2.81l-4.53,6.61c7.13,3.47,13.93,4.33,18.53,4.33c8.79,0,17.12-4.33,17.12-16.81v-29.89h-10.33V551.24z
		 M994.24,572.92c-5,0-7.79-3.8-7.79-9.2c0-5.34,2.8-9.21,7.79-9.21c5,0,7.8,3.87,7.8,9.21
		C1002.04,569.12,999.24,572.92,994.24,572.92"/>
	<path class="st2" d="M706.78,551.24c-2.87-3.8-7.53-4.87-10.93-4.87c-8.4,0-14.99,5.87-14.99,17.34c0,10.8,6.6,17.34,14.99,17.34
		c3.4,0,8.06-1.07,10.93-4.87c0,7.34-4.4,9.08-8.8,9.08c-3.53,0-7.13-0.94-12-2.81l-4.53,6.61c7.13,3.47,13.93,4.33,18.53,4.33
		c8.79,0,17.12-4.33,17.12-16.81v-29.89h-10.33V551.24z M698.98,572.92c-4.99,0-7.8-3.8-7.8-9.2c0-5.34,2.8-9.21,7.8-9.21
		c5,0,7.8,3.87,7.8,9.21C706.78,569.12,703.99,572.92,698.98,572.92"/>
	<path class="st2" d="M1035.62,546.38c-4.6,0-7.2,2.2-8.26,5.94v-5.61h-10.33v34.03h10.33v-13.74c0-8.07,1.33-12.47,7.19-12.47
		c2.8,0,4.47,1.67,4.93,2.14l1.46-7.94C1039.88,547.37,1038.09,546.38,1035.62,546.38"/>
	<path class="st2" d="M613.45,552.31v-5.61h-10.33v34.03h10.33v-13.75c0-8.07,1.33-12.47,7.2-12.47c2.8,0,4.46,1.67,4.94,2.14
		l1.46-7.93c-1.06-1.33-2.86-2.34-5.33-2.34C617.12,546.37,614.52,548.58,613.45,552.31"/>
	<path class="st2" d="M1058,546.37c-9.46,0-17.79,6.27-17.79,17.41c0,11.14,8.33,17.28,17.79,17.28c9.46,0,17.8-6.14,17.8-17.28
		C1075.8,552.64,1067.46,546.37,1058,546.37 M1058,572.92c-5,0-7.47-3.8-7.47-9.14c0-5.4,2.47-9.27,7.47-9.27
		c5,0,7.46,3.87,7.46,9.27C1065.47,569.12,1063,572.92,1058,572.92"/>
	<path class="st2" d="M1135.6,546.37c-3.4,0-8.07,1.07-10.94,4.87v-4.54h-10.33v45.1h10.33v-15.61c2.87,3.8,7.53,4.87,10.94,4.87
		c8.4,0,14.99-6.54,14.99-17.34C1150.59,552.24,1144,546.37,1135.6,546.37 M1132.46,572.92c-5,0-7.8-3.8-7.8-9.2
		c0-5.34,2.8-9.21,7.8-9.21c5,0,7.8,3.87,7.8,9.21C1140.26,569.12,1137.46,572.92,1132.46,572.92"/>
	<path class="st2" d="M746.03,566.27c0-4.98,1.52-8.83,4.64-11.78c3.21-3.03,7.27-4.5,12.41-4.5v-10.1
		c-7.72,0-14.23,2.44-19.33,7.25c-5.19,4.89-7.82,11.33-7.82,19.14c0,7.8,2.63,14.24,7.82,19.14c5.1,4.81,11.6,7.25,19.33,7.25
		v-10.1c-5.14,0-9.2-1.47-12.41-4.5C747.55,575.1,746.03,571.24,746.03,566.27"/>
	<path class="st2" d="M763.08,518.31v10.11c5.13,0,9.19,1.47,12.4,4.5c3.13,2.95,4.65,6.8,4.65,11.78c0,4.98-1.52,8.83-4.65,11.78
		c-3.21,3.03-7.27,4.5-12.4,4.5v10.1c7.72,0,14.22-2.44,19.32-7.25c5.19-4.89,7.82-11.33,7.82-19.14c0-7.81-2.63-14.24-7.82-19.14
		C777.3,520.76,770.8,518.31,763.08,518.31"/>
	<polygon class="st2" points="553.04,570.78 546.64,546.66 535.77,546.66 529.54,570.72 525.12,546.66 514.9,546.66 523.45,580.06 
		534.87,580.06 540.96,557.68 547.01,580.06 558.42,580.06 566.97,546.66 557.47,546.66 	"/>
	<path class="st2" d="M592.51,548.28c-2.51-1.36-5.43-2.04-8.73-2.04c-3.27,0-6.18,0.69-8.73,2.06c-2.55,1.38-4.54,3.35-5.95,5.93
		c-1.41,2.57-2.12,5.61-2.12,9.12c0,3.47,0.72,6.51,2.15,9.1c1.44,2.59,3.42,4.58,5.95,5.95c2.53,1.38,5.43,2.07,8.7,2.07
		c2.79,0,5.32-0.53,7.59-1.59c2.27-1.06,4.15-2.51,5.62-4.37c1.47-1.86,2.43-3.96,2.87-6.32h-10.82c-0.32,1.2-0.97,2.18-1.97,2.93
		c-0.99,0.76-2.25,1.14-3.77,1.14c-1.79,0-3.27-0.55-4.42-1.65c-1.16-1.1-1.8-2.9-1.91-5.41h23.14c0.2-0.99,0.3-1.92,0.3-2.75
		c0-3.19-0.68-6.02-2.06-8.47C596.96,551.54,595.02,549.64,592.51,548.28 M577.02,560.91c0.16-2.15,0.85-3.79,2.09-4.91
		c1.23-1.11,2.79-1.68,4.67-1.68c1.79,0,3.3,0.55,4.51,1.65c1.22,1.1,1.8,2.74,1.76,4.93H577.02z"/>
	<rect x="629.13" y="546.67" class="st2" width="10.22" height="33.39"/>
	<path class="st2" d="M634.27,531.88c-1.83,0-3.31,0.51-4.43,1.53c-1.11,1.02-1.67,2.3-1.67,3.86c0,1.52,0.56,2.78,1.67,3.8
		c1.12,1.02,2.59,1.53,4.43,1.53c1.83,0,3.31-0.51,4.42-1.53c1.11-1.02,1.67-2.28,1.67-3.8c0-1.56-0.56-2.84-1.67-3.86
		C637.58,532.39,636.1,531.88,634.27,531.88"/>
	<path class="st2" d="M664.95,546.3c-2.55,0-4.78,0.58-6.67,1.74c-1.9,1.16-3.32,2.73-4.28,4.73v-6.1h-10.22v33.39H654v-17.71
		c0-2.44,0.61-4.31,1.82-5.63c1.21-1.32,2.86-1.98,4.93-1.98c1.96,0,3.52,0.63,4.7,1.89c1.18,1.25,1.76,3,1.76,5.23v18.2h10.23
		v-19.39c0-4.47-1.13-7.98-3.38-10.53C671.81,547.58,668.77,546.3,664.95,546.3"/>
</g>
</svg>
